<svg width="232" height="25" viewBox="0 0 232 25" version="1.1" xmlns="http://www.w3.org/2000/svg" xmlns:xlink="http://www.w3.org/1999/xlink">
<title>&#208;&#163;&#209;&#128;&#209;&#142;&#208;&#191;&#208;&#184;&#208;&#189;&#209;&#129;&#208;&#186;.&#208;&#190;&#208;&#189;&#208;&#187;&#208;&#176;&#208;&#185;&#208;&#189;</title>
<desc>Created using Figma</desc>
<g id="Canvas" transform="translate(678 392)">
<g id="&#208;&#163;&#209;&#128;&#209;&#142;&#208;&#191;&#208;&#184;&#208;&#189;&#209;&#129;&#208;&#186;.&#208;&#190;&#208;&#189;&#208;&#187;&#208;&#176;&#208;&#185;&#208;&#189;">
<use xlink:href="#path0_fill" transform="translate(-681 -400)" fill="#0093DD"/>
</g>
</g>
<defs>
<path id="path0_fill" d="M 18.8019 8.376C 19.1539 8.536 19.3299 8.768 19.3299 9.072C 19.3299 9.248 19.2899 9.408 19.2099 9.552L 12.5859 23.64C 12.0579 24.776 11.4099 25.656 10.6419 26.28C 9.87394 26.888 9.04994 27.192 8.16994 27.192C 7.41794 27.192 6.70594 26.952 6.03394 26.472C 5.76194 26.296 5.62594 26.064 5.62594 25.776C 5.62594 25.6 5.69794 25.416 5.84194 25.224C 6.00194 24.984 6.23394 24.864 6.53794 24.864C 6.74594 24.864 6.94594 24.928 7.13794 25.056C 7.48994 25.28 7.84994 25.392 8.21794 25.392C 8.69794 25.392 9.18594 25.176 9.68194 24.744C 10.1779 24.296 10.6099 23.68 10.9779 22.896L 11.2179 22.368L 3.70594 9.648C 3.60994 9.472 3.56194 9.304 3.56194 9.144C 3.56194 8.824 3.72994 8.584 4.06594 8.424C 4.28994 8.312 4.46594 8.256 4.59394 8.256C 4.86594 8.256 5.09794 8.424 5.28994 8.76L 12.0579 20.616L 17.6019 8.832C 17.7939 8.448 18.0419 8.256 18.3459 8.256C 18.4579 8.256 18.6099 8.296 18.8019 8.376ZM 29.2695 13.752C 30.5175 13.752 31.6455 14.048 32.6535 14.64C 33.6775 15.216 34.4775 16.016 35.0535 17.04C 35.6455 18.064 35.9415 19.2 35.9415 20.448C 35.9415 21.696 35.6535 22.832 35.0775 23.856C 34.5175 24.864 33.7415 25.664 32.7495 26.256C 31.7735 26.832 30.6775 27.12 29.4615 27.12C 28.4215 27.12 27.4695 26.904 26.6055 26.472C 25.7415 26.024 25.0295 25.416 24.4695 24.648L 24.4695 31.68C 24.4695 31.952 24.3815 32.176 24.2055 32.352C 24.0295 32.528 23.8055 32.616 23.5335 32.616C 23.2615 32.616 23.0375 32.528 22.8615 32.352C 22.7015 32.176 22.6215 31.952 22.6215 31.68L 22.6215 26.304C 22.6055 26.256 22.5975 26.184 22.5975 26.088L 22.5975 20.448C 22.5975 19.2 22.8855 18.064 23.4615 17.04C 24.0535 16.016 24.8535 15.216 25.8615 14.64C 26.8855 14.048 28.0215 13.752 29.2695 13.752ZM 29.2695 25.44C 30.1815 25.44 31.0055 25.224 31.7415 24.792C 32.4935 24.36 33.0775 23.768 33.4935 23.016C 33.9255 22.248 34.1415 21.392 34.1415 20.448C 34.1415 19.504 33.9255 18.656 33.4935 17.904C 33.0775 17.136 32.4935 16.536 31.7415 16.104C 31.0055 15.656 30.1815 15.432 29.2695 15.432C 28.3575 15.432 27.5335 15.656 26.7975 16.104C 26.0615 16.536 25.4775 17.136 25.0455 17.904C 24.6295 18.656 24.4215 19.504 24.4215 20.448C 24.4215 20.72 24.4295 20.92 24.4455 21.048C 24.4615 21.08 24.4695 21.12 24.4695 21.168C 24.6295 22.416 25.1495 23.44 26.0295 24.24C 26.9255 25.04 28.0055 25.44 29.2695 25.44ZM 50.7263 13.752C 51.9903 13.752 53.1263 14.04 54.1343 14.616C 55.1423 15.192 55.9342 15.992 56.5103 17.016C 57.1023 18.04 57.3983 19.184 57.3983 20.448C 57.3983 21.712 57.1102 22.856 56.5342 23.88C 55.9582 24.888 55.1582 25.68 54.1343 26.256C 53.1263 26.832 51.9903 27.12 50.7263 27.12C 49.5423 27.12 48.4703 26.872 47.5103 26.376C 46.5503 25.864 45.7663 25.168 45.1583 24.288C 44.5663 23.392 44.2143 22.376 44.1023 21.24L 41.4142 21.24L 41.4142 26.088C 41.4142 26.36 41.3262 26.584 41.1503 26.76C 40.9902 26.92 40.7742 27 40.5022 27C 40.2303 27 40.0063 26.92 39.8303 26.76C 39.6543 26.584 39.5663 26.36 39.5663 26.088L 39.5663 14.808C 39.5663 14.536 39.6543 14.312 39.8303 14.136C 40.0063 13.96 40.2303 13.872 40.5022 13.872C 40.7742 13.872 40.9902 13.96 41.1503 14.136C 41.3262 14.312 41.4142 14.536 41.4142 14.808L 41.4142 19.56L 44.1023 19.56C 44.2303 18.44 44.5903 17.44 45.1823 16.56C 45.7902 15.68 46.5742 14.992 47.5342 14.496C 48.4942 14 49.5582 13.752 50.7263 13.752ZM 50.7263 25.44C 51.6542 25.44 52.4862 25.224 53.2222 24.792C 53.9582 24.36 54.5342 23.768 54.9503 23.016C 55.3663 22.248 55.5743 21.392 55.5743 20.448C 55.5743 19.488 55.3663 18.632 54.9503 17.88C 54.5342 17.112 53.9582 16.512 53.2222 16.08C 52.4862 15.648 51.6542 15.432 50.7263 15.432C 49.8142 15.432 48.9822 15.648 48.2303 16.08C 47.4943 16.512 46.9102 17.112 46.4782 17.88C 46.0622 18.632 45.8542 19.488 45.8542 20.448C 45.8542 21.392 46.0622 22.248 46.4782 23.016C 46.9102 23.768 47.4943 24.36 48.2303 24.792C 48.9822 25.224 49.8142 25.44 50.7263 25.44ZM 67.2276 13.728C 68.3636 13.728 69.3796 13.968 70.2756 14.448C 71.1876 14.928 71.8996 15.632 72.4116 16.56C 72.9236 17.472 73.1796 18.568 73.1796 19.848L 73.1796 26.088C 73.1796 26.344 73.0916 26.56 72.9156 26.736C 72.7396 26.912 72.5236 27 72.2676 27C 71.9956 27 71.7716 26.912 71.5956 26.736C 71.4196 26.56 71.3316 26.344 71.3316 26.088L 71.3316 19.848C 71.3316 18.424 70.9316 17.344 70.1316 16.608C 69.3476 15.856 68.3156 15.48 67.0356 15.48C 66.2516 15.48 65.5396 15.632 64.8996 15.936C 64.2756 16.24 63.7796 16.664 63.4116 17.208C 63.0436 17.736 62.8596 18.328 62.8596 18.984L 62.8596 26.088C 62.8596 26.36 62.7716 26.584 62.5956 26.76C 62.4356 26.92 62.2196 27 61.9476 27C 61.6756 27 61.4516 26.92 61.2756 26.76C 61.0996 26.584 61.0116 26.36 61.0116 26.088L 61.0116 14.808C 61.0116 14.536 61.0996 14.312 61.2756 14.136C 61.4516 13.96 61.6756 13.872 61.9476 13.872C 62.2196 13.872 62.4356 13.96 62.5956 14.136C 62.7716 14.312 62.8596 14.536 62.8596 14.808L 62.8596 15.624C 63.3876 15.032 64.0276 14.568 64.7796 14.232C 65.5316 13.896 66.3476 13.728 67.2276 13.728ZM 88.2457 13.872C 88.5177 13.872 88.7417 13.96 88.9177 14.136C 89.0938 14.296 89.1818 14.512 89.1818 14.784L 89.1818 26.064C 89.1818 26.336 89.0938 26.56 88.9177 26.736C 88.7417 26.912 88.5177 27 88.2457 27C 87.9738 27 87.7498 26.912 87.5737 26.736C 87.4137 26.56 87.3337 26.336 87.3337 26.064L 87.3337 25.248C 86.8057 25.84 86.1658 26.304 85.4138 26.64C 84.6617 26.976 83.8457 27.144 82.9658 27.144C 81.8298 27.144 80.8058 26.904 79.8938 26.424C 78.9977 25.944 78.2937 25.248 77.7818 24.336C 77.2697 23.408 77.0137 22.304 77.0137 21.024L 77.0137 14.784C 77.0137 14.528 77.1017 14.312 77.2777 14.136C 77.4537 13.96 77.6697 13.872 77.9258 13.872C 78.1978 13.872 78.4218 13.96 78.5977 14.136C 78.7738 14.312 78.8618 14.528 78.8618 14.784L 78.8618 21.024C 78.8618 22.448 79.2538 23.536 80.0378 24.288C 80.8378 25.024 81.8778 25.392 83.1577 25.392C 83.9417 25.392 84.6457 25.24 85.2697 24.936C 85.9097 24.632 86.4137 24.216 86.7817 23.688C 87.1497 23.144 87.3337 22.544 87.3337 21.888L 87.3337 14.784C 87.3337 14.512 87.4137 14.296 87.5737 14.136C 87.7498 13.96 87.9738 13.872 88.2457 13.872ZM 104.728 13.872C 105 13.872 105.216 13.96 105.376 14.136C 105.536 14.312 105.616 14.536 105.616 14.808L 105.616 26.064C 105.616 26.336 105.536 26.56 105.376 26.736C 105.216 26.912 105 27 104.728 27C 104.456 27 104.232 26.912 104.056 26.736C 103.88 26.56 103.792 26.336 103.792 26.064L 103.792 21.216L 95.3199 21.216L 95.3199 26.064C 95.3199 26.336 95.2319 26.56 95.0559 26.736C 94.8959 26.912 94.6799 27 94.4079 27C 94.1359 27 93.9119 26.912 93.7359 26.736C 93.5759 26.56 93.4959 26.336 93.4959 26.064L 93.4959 14.808C 93.4959 14.536 93.5759 14.312 93.7359 14.136C 93.9119 13.96 94.1359 13.872 94.4079 13.872C 94.6799 13.872 94.8959 13.96 95.0559 14.136C 95.2319 14.312 95.3199 14.536 95.3199 14.808L 95.3199 19.56L 103.792 19.56L 103.792 14.808C 103.792 14.536 103.88 14.312 104.056 14.136C 104.232 13.96 104.456 13.872 104.728 13.872ZM 115.542 13.752C 117.542 13.752 119.166 14.52 120.414 16.056C 120.542 16.2 120.606 16.368 120.606 16.56C 120.606 16.816 120.47 17.04 120.198 17.232C 120.054 17.328 119.902 17.376 119.742 17.376C 119.502 17.376 119.27 17.256 119.046 17.016C 118.566 16.488 118.038 16.096 117.462 15.84C 116.886 15.568 116.246 15.432 115.542 15.432C 114.662 15.432 113.878 15.648 113.19 16.08C 112.502 16.496 111.966 17.088 111.582 17.856C 111.214 18.624 111.03 19.488 111.03 20.448C 111.03 21.392 111.23 22.248 111.63 23.016C 112.03 23.768 112.59 24.36 113.31 24.792C 114.03 25.224 114.854 25.44 115.782 25.44C 117.062 25.44 118.094 25.096 118.878 24.408C 119.086 24.232 119.302 24.144 119.526 24.144C 119.718 24.144 119.894 24.208 120.054 24.336C 120.278 24.528 120.39 24.744 120.39 24.984C 120.39 25.192 120.31 25.368 120.15 25.512C 118.998 26.584 117.542 27.12 115.782 27.12C 114.534 27.12 113.414 26.832 112.422 26.256C 111.43 25.664 110.646 24.864 110.07 23.856C 109.51 22.832 109.23 21.696 109.23 20.448C 109.23 19.168 109.502 18.024 110.046 17.016C 110.59 15.992 111.342 15.192 112.302 14.616C 113.262 14.04 114.342 13.752 115.542 13.752ZM 134.471 25.584C 134.631 25.776 134.711 25.968 134.711 26.16C 134.711 26.368 134.615 26.568 134.422 26.76C 134.231 26.92 134.015 27 133.775 27C 133.534 27 133.326 26.912 133.151 26.736L 128.134 21.24L 126.046 21.24L 126.046 26.088C 126.046 26.36 125.958 26.584 125.783 26.76C 125.606 26.92 125.382 27 125.111 27C 124.839 27 124.623 26.92 124.463 26.76C 124.303 26.584 124.223 26.36 124.223 26.088L 124.223 14.808C 124.223 14.536 124.303 14.312 124.463 14.136C 124.623 13.96 124.839 13.872 125.111 13.872C 125.382 13.872 125.606 13.96 125.783 14.136C 125.958 14.312 126.046 14.536 126.046 14.808L 126.046 19.56L 128.182 19.56L 132.91 14.16C 133.086 13.968 133.31 13.872 133.582 13.872C 133.79 13.872 133.975 13.936 134.135 14.064C 134.342 14.224 134.446 14.432 134.446 14.688C 134.446 14.912 134.366 15.104 134.206 15.264L 129.719 20.352L 134.471 25.584ZM 138.131 24.576C 138.515 24.576 138.843 24.72 139.115 25.008C 139.387 25.28 139.523 25.608 139.523 25.992C 139.523 26.376 139.387 26.704 139.115 26.976C 138.843 27.248 138.515 27.384 138.131 27.384C 137.747 27.384 137.419 27.248 137.147 26.976C 136.875 26.704 136.739 26.376 136.739 25.992C 136.739 25.592 136.875 25.256 137.147 24.984C 137.435 24.712 137.763 24.576 138.131 24.576ZM 148.855 13.752C 150.119 13.752 151.255 14.04 152.263 14.616C 153.271 15.192 154.063 15.992 154.639 17.016C 155.231 18.04 155.527 19.184 155.527 20.448C 155.527 21.712 155.239 22.856 154.663 23.88C 154.087 24.888 153.287 25.68 152.263 26.256C 151.255 26.832 150.119 27.12 148.855 27.12C 147.591 27.12 146.447 26.832 145.423 26.256C 144.415 25.68 143.623 24.888 143.047 23.88C 142.471 22.856 142.183 21.712 142.183 20.448C 142.183 19.184 142.471 18.04 143.047 17.016C 143.623 15.992 144.415 15.192 145.423 14.616C 146.447 14.04 147.591 13.752 148.855 13.752ZM 148.855 15.432C 147.943 15.432 147.111 15.648 146.359 16.08C 145.623 16.512 145.039 17.112 144.607 17.88C 144.191 18.632 143.983 19.488 143.983 20.448C 143.983 21.392 144.191 22.248 144.607 23.016C 145.039 23.768 145.623 24.36 146.359 24.792C 147.111 25.224 147.943 25.44 148.855 25.44C 149.783 25.44 150.615 25.224 151.351 24.792C 152.087 24.36 152.663 23.768 153.079 23.016C 153.495 22.248 153.703 21.392 153.703 20.448C 153.703 19.488 153.495 18.632 153.079 17.88C 152.663 17.112 152.087 16.512 151.351 16.08C 150.615 15.648 149.783 15.432 148.855 15.432ZM 170.353 13.872C 170.625 13.872 170.841 13.96 171.001 14.136C 171.161 14.312 171.241 14.536 171.241 14.808L 171.241 26.064C 171.241 26.336 171.161 26.56 171.001 26.736C 170.841 26.912 170.625 27 170.353 27C 170.081 27 169.857 26.912 169.681 26.736C 169.505 26.56 169.417 26.336 169.417 26.064L 169.417 21.216L 160.945 21.216L 160.945 26.064C 160.945 26.336 160.857 26.56 160.681 26.736C 160.521 26.912 160.305 27 160.033 27C 159.761 27 159.537 26.912 159.361 26.736C 159.201 26.56 159.121 26.336 159.121 26.064L 159.121 14.808C 159.121 14.536 159.201 14.312 159.361 14.136C 159.537 13.96 159.761 13.872 160.033 13.872C 160.305 13.872 160.521 13.96 160.681 14.136C 160.857 14.312 160.945 14.536 160.945 14.808L 160.945 19.56L 169.417 19.56L 169.417 14.808C 169.417 14.536 169.505 14.312 169.681 14.136C 169.857 13.96 170.081 13.872 170.353 13.872ZM 186.567 25.824C 186.631 25.984 186.663 26.104 186.663 26.184C 186.663 26.488 186.487 26.736 186.135 26.928C 186.007 26.992 185.863 27.024 185.703 27.024C 185.367 27.024 185.111 26.856 184.935 26.52L 180.495 16.656L 175.983 26.496C 175.919 26.656 175.815 26.784 175.671 26.88C 175.527 26.976 175.367 27.024 175.191 27.024C 175.063 27.024 174.919 26.984 174.759 26.904C 174.391 26.712 174.207 26.464 174.207 26.16C 174.207 26.08 174.239 25.96 174.303 25.8L 179.583 14.496C 179.775 14.08 180.063 13.872 180.447 13.872C 180.863 13.872 181.167 14.08 181.359 14.496L 186.567 25.824ZM 195.636 13.752C 196.884 13.752 198.012 14.048 199.02 14.64C 200.044 15.216 200.844 16.016 201.42 17.04C 202.012 18.064 202.308 19.2 202.308 20.448L 202.308 26.088C 202.308 26.344 202.22 26.56 202.044 26.736C 201.868 26.912 201.644 27 201.372 27C 201.1 27 200.876 26.92 200.7 26.76C 200.524 26.584 200.436 26.36 200.436 26.088L 200.436 24.648C 199.876 25.416 199.164 26.024 198.3 26.472C 197.436 26.904 196.484 27.12 195.444 27.12C 194.228 27.12 193.124 26.832 192.132 26.256C 191.156 25.664 190.38 24.864 189.804 23.856C 189.244 22.832 188.964 21.696 188.964 20.448C 188.964 19.2 189.252 18.064 189.828 17.04C 190.42 16.016 191.22 15.216 192.228 14.64C 193.252 14.048 194.388 13.752 195.636 13.752ZM 195.636 25.44C 196.548 25.44 197.372 25.224 198.108 24.792C 198.844 24.36 199.42 23.768 199.836 23.016C 200.268 22.248 200.484 21.392 200.484 20.448C 200.484 19.504 200.268 18.656 199.836 17.904C 199.42 17.136 198.844 16.536 198.108 16.104C 197.372 15.656 196.548 15.432 195.636 15.432C 194.724 15.432 193.892 15.656 193.14 16.104C 192.404 16.536 191.82 17.136 191.388 17.904C 190.972 18.656 190.764 19.504 190.764 20.448C 190.764 21.392 190.972 22.248 191.388 23.016C 191.82 23.768 192.404 24.36 193.14 24.792C 193.892 25.224 194.724 25.44 195.636 25.44ZM 216.894 13.872C 217.166 13.872 217.39 13.96 217.566 14.136C 217.742 14.296 217.83 14.512 217.83 14.784L 217.83 26.064C 217.83 26.336 217.742 26.56 217.566 26.736C 217.39 26.912 217.166 27 216.894 27C 216.622 27 216.398 26.912 216.222 26.736C 216.062 26.56 215.982 26.336 215.982 26.064L 215.982 25.248C 215.454 25.84 214.814 26.304 214.062 26.64C 213.31 26.976 212.494 27.144 211.614 27.144C 210.478 27.144 209.454 26.904 208.542 26.424C 207.646 25.944 206.942 25.248 206.43 24.336C 205.918 23.408 205.662 22.304 205.662 21.024L 205.662 14.784C 205.662 14.528 205.75 14.312 205.926 14.136C 206.102 13.96 206.318 13.872 206.574 13.872C 206.846 13.872 207.07 13.96 207.246 14.136C 207.422 14.312 207.51 14.528 207.51 14.784L 207.51 21.024C 207.51 22.448 207.902 23.536 208.686 24.288C 209.486 25.024 210.526 25.392 211.806 25.392C 212.59 25.392 213.294 25.24 213.918 24.936C 214.558 24.632 215.062 24.216 215.43 23.688C 215.798 23.144 215.982 22.544 215.982 21.888L 215.982 14.784C 215.982 14.512 216.062 14.296 216.222 14.136C 216.398 13.96 216.622 13.872 216.894 13.872ZM 208.614 8.208C 208.87 8.208 209.078 8.296 209.238 8.472C 209.398 8.648 209.478 8.888 209.478 9.192C 209.478 9.624 209.702 9.984 210.15 10.272C 210.614 10.544 211.19 10.68 211.878 10.68C 212.566 10.68 213.134 10.544 213.582 10.272C 214.046 9.984 214.278 9.624 214.278 9.192C 214.278 8.888 214.358 8.648 214.518 8.472C 214.678 8.296 214.886 8.208 215.142 8.208C 215.398 8.208 215.606 8.296 215.766 8.472C 215.926 8.632 216.006 8.848 216.006 9.12C 216.006 9.696 215.822 10.216 215.454 10.68C 215.102 11.144 214.606 11.512 213.966 11.784C 213.342 12.04 212.646 12.168 211.878 12.168C 211.11 12.168 210.406 12.04 209.766 11.784C 209.142 11.512 208.646 11.144 208.278 10.68C 207.926 10.216 207.75 9.696 207.75 9.12C 207.75 8.848 207.83 8.632 207.99 8.472C 208.15 8.296 208.358 8.208 208.614 8.208ZM 233.376 13.872C 233.648 13.872 233.864 13.96 234.024 14.136C 234.184 14.312 234.264 14.536 234.264 14.808L 234.264 26.064C 234.264 26.336 234.184 26.56 234.024 26.736C 233.864 26.912 233.648 27 233.376 27C 233.104 27 232.88 26.912 232.704 26.736C 232.528 26.56 232.44 26.336 232.44 26.064L 232.44 21.216L 223.968 21.216L 223.968 26.064C 223.968 26.336 223.88 26.56 223.704 26.736C 223.544 26.912 223.328 27 223.056 27C 222.784 27 222.56 26.912 222.384 26.736C 222.224 26.56 222.144 26.336 222.144 26.064L 222.144 14.808C 222.144 14.536 222.224 14.312 222.384 14.136C 222.56 13.96 222.784 13.872 223.056 13.872C 223.328 13.872 223.544 13.96 223.704 14.136C 223.88 14.312 223.968 14.536 223.968 14.808L 223.968 19.56L 232.44 19.56L 232.44 14.808C 232.44 14.536 232.528 14.312 232.704 14.136C 232.88 13.96 233.104 13.872 233.376 13.872Z"/>
</defs>
</svg>
